<svg xmlns="http://www.w3.org/2000/svg" xmlns:xlink="http://www.w3.org/1999/xlink" x="0px" y="0px" width="64px" height="64px" viewBox="0 0 64 64"><g stroke-width="2" transform="translate(0.5, 0.5)"><polyline points="10 36 10 60 54 60 54 36" fill="none" stroke="#000000" stroke-linecap="square" stroke-miterlimit="10" stroke-width="2" stroke-linejoin="miter"></polyline><path data-color="color-2" d="M61.946,22A9,9,0,0,1,53,30a9.2,9.2,0,0,1-7-3.4A8.95,8.95,0,0,1,39,30a9.145,9.145,0,0,1-7-3.4A9.145,9.145,0,0,1,25,30a8.95,8.95,0,0,1-7-3.4A9.343,9.343,0,0,1,11,30a9,9,0,0,1-8.946-8L14,4H50Z" fill="none" stroke="#000000" stroke-linecap="square" stroke-miterlimit="10" stroke-width="2" stroke-linejoin="miter"></path><polyline data-cap="butt" points="26 60 26 44 38 44 38 60" fill="none" stroke="#000000" stroke-miterlimit="10" stroke-width="2" stroke-linecap="butt" stroke-linejoin="miter"></polyline></g></svg>