<svg xmlns="http://www.w3.org/2000/svg" width="33" height="21" viewBox="0 0 33 21" fill="none"><rect width="33" height="16" fill="#AC0000"></rect><path d="M3.636 12V11.472C3.9 11.456 4.088 11.4 4.2 11.304C4.32 11.208 4.396 11.064 4.428 10.872C4.46 10.68 4.476 10.436 4.476 10.14V5.148C4.476 4.972 4.48 4.804 4.488 4.644C4.496 4.476 4.504 4.332 4.512 4.212C4.376 4.22 4.228 4.228 4.068 4.236C3.908 4.244 3.764 4.252 3.636 4.26V3.6H6.588V4.128C6.332 4.136 6.144 4.192 6.024 4.296C5.904 4.392 5.828 4.536 5.796 4.728C5.764 4.912 5.748 5.156 5.748 5.46V7.416H9.72V5.148C9.72 4.972 9.724 4.804 9.732 4.644C9.74 4.476 9.748 4.332 9.756 4.212C9.62 4.22 9.472 4.228 9.312 4.236C9.152 4.244 9.008 4.252 8.88 4.26V3.6H11.832V4.128C11.576 4.136 11.388 4.192 11.268 4.296C11.148 4.392 11.072 4.536 11.04 4.728C11.008 4.912 10.992 5.156 10.992 5.46V10.392C10.992 10.608 10.988 10.804 10.98 10.98C10.98 11.148 10.972 11.284 10.956 11.388C11.092 11.372 11.24 11.364 11.4 11.364C11.56 11.356 11.704 11.348 11.832 11.34V12H8.88V11.472C9.144 11.456 9.332 11.4 9.444 11.304C9.564 11.208 9.64 11.064 9.672 10.872C9.704 10.68 9.72 10.436 9.72 10.14V8.04L5.748 8.076V10.392C5.748 10.608 5.744 10.804 5.736 10.98C5.736 11.148 5.728 11.284 5.712 11.388C5.848 11.372 5.996 11.364 6.156 11.364C6.324 11.356 6.468 11.348 6.588 11.34V12H3.636ZM17.1036 12.192C16.3436 12.192 15.6916 12.064 15.1476 11.808C14.6116 11.552 14.1756 11.212 13.8396 10.788C13.5036 10.356 13.2556 9.88 13.0956 9.36C12.9356 8.84 12.8556 8.32 12.8556 7.8C12.8556 7.296 12.9396 6.788 13.1076 6.276C13.2836 5.756 13.5436 5.28 13.8876 4.848C14.2396 4.416 14.6756 4.068 15.1956 3.804C15.7236 3.54 16.3396 3.408 17.0436 3.408C17.7796 3.408 18.4116 3.54 18.9396 3.804C19.4756 4.068 19.9156 4.42 20.2596 4.86C20.6036 5.292 20.8596 5.764 21.0276 6.276C21.2036 6.788 21.2916 7.296 21.2916 7.8C21.2916 8.296 21.2036 8.804 21.0276 9.324C20.8596 9.836 20.5996 10.312 20.2476 10.752C19.9036 11.184 19.4716 11.532 18.9516 11.796C18.4316 12.06 17.8156 12.192 17.1036 12.192ZM17.1636 11.568C17.6276 11.568 18.0276 11.464 18.3636 11.256C18.7076 11.048 18.9876 10.772 19.2036 10.428C19.4276 10.076 19.5916 9.692 19.6956 9.276C19.7996 8.852 19.8516 8.432 19.8516 8.016C19.8516 7.504 19.7916 7.012 19.6716 6.54C19.5516 6.06 19.3676 5.632 19.1196 5.256C18.8796 4.872 18.5796 4.572 18.2196 4.356C17.8596 4.132 17.4436 4.02 16.9716 4.02C16.5076 4.02 16.1036 4.128 15.7596 4.344C15.4156 4.56 15.1356 4.844 14.9196 5.196C14.7036 5.54 14.5396 5.924 14.4276 6.348C14.3236 6.764 14.2716 7.184 14.2716 7.608C14.2716 8.024 14.3276 8.464 14.4396 8.928C14.5516 9.392 14.7236 9.824 14.9556 10.224C15.1876 10.624 15.4836 10.948 15.8436 11.196C16.2116 11.444 16.6516 11.568 17.1636 11.568ZM28.5914 6.192C28.5834 5.736 28.5314 5.356 28.4354 5.052C28.3394 4.748 28.1794 4.52 27.9554 4.368C27.7394 4.216 27.4394 4.144 27.0554 4.152H26.1914L26.1794 10.392C26.1794 10.608 26.1754 10.804 26.1674 10.98C26.1674 11.148 26.1594 11.284 26.1434 11.388C26.2954 11.372 26.4594 11.364 26.6354 11.364C26.8194 11.356 26.9834 11.348 27.1274 11.34V12H24.0794V11.472C24.3434 11.456 24.5314 11.4 24.6434 11.304C24.7554 11.208 24.8274 11.064 24.8594 10.872C24.8914 10.672 24.9074 10.428 24.9074 10.14V4.164L23.8994 4.176C23.4114 4.176 23.0554 4.34 22.8314 4.668C22.6074 4.996 22.4954 5.504 22.4954 6.192H21.9314L22.0034 3.6H29.0834L29.1554 6.192H28.5914Z" fill="white"></path><path d="M12.5 16H20.5L16.5 18.5L12.5 21V16Z" fill="#AC0000"></path></svg>