<svg xmlns="http://www.w3.org/2000/svg" width="66" height="21" viewBox="0 0 66 21" fill="none"><rect width="66" height="16" fill="#C3935B"></rect><path d="M3.636 11.472C3.9 11.456 4.088 11.4 4.2 11.304C4.32 11.208 4.396 11.064 4.428 10.872C4.46 10.68 4.476 10.436 4.476 10.14V5.148C4.476 4.972 4.48 4.804 4.488 4.644C4.496 4.476 4.504 4.332 4.512 4.212C4.376 4.22 4.228 4.228 4.068 4.236C3.908 4.244 3.764 4.252 3.636 4.26V3.6C4.108 3.592 4.588 3.588 5.076 3.588C5.564 3.58 6.06 3.576 6.564 3.576C7.316 3.576 7.952 3.668 8.472 3.852C9 4.028 9.404 4.3 9.684 4.668C9.972 5.028 10.12 5.484 10.128 6.036C10.136 6.348 10.08 6.672 9.96 7.008C9.84 7.336 9.636 7.644 9.348 7.932C9.06 8.212 8.668 8.44 8.172 8.616C7.684 8.792 7.068 8.88 6.324 8.88C6.244 8.888 6.152 8.892 6.048 8.892C5.952 8.892 5.852 8.888 5.748 8.88V10.392C5.748 10.608 5.744 10.804 5.736 10.98C5.736 11.148 5.728 11.284 5.712 11.388C5.824 11.38 5.944 11.372 6.072 11.364C6.2 11.356 6.324 11.352 6.444 11.352C6.572 11.344 6.688 11.336 6.792 11.328V12H3.636V11.472ZM5.748 8.244C5.884 8.26 6 8.272 6.096 8.28C6.2 8.28 6.32 8.28 6.456 8.28C6.904 8.28 7.3 8.196 7.644 8.028C7.988 7.86 8.256 7.616 8.448 7.296C8.64 6.976 8.736 6.596 8.736 6.156C8.736 5.772 8.676 5.452 8.556 5.196C8.444 4.932 8.284 4.728 8.076 4.584C7.876 4.432 7.644 4.324 7.38 4.26C7.116 4.196 6.836 4.164 6.54 4.164C6.3 4.164 6.124 4.212 6.012 4.308C5.9 4.404 5.828 4.544 5.796 4.728C5.764 4.912 5.748 5.148 5.748 5.436V8.244ZM10.9837 12V11.472C11.2477 11.456 11.4357 11.4 11.5477 11.304C11.6677 11.208 11.7437 11.064 11.7757 10.872C11.8077 10.68 11.8237 10.436 11.8237 10.14V5.148C11.8237 4.972 11.8277 4.804 11.8357 4.644C11.8437 4.476 11.8517 4.332 11.8597 4.212C11.7237 4.22 11.5757 4.228 11.4157 4.236C11.2557 4.244 11.1117 4.252 10.9837 4.26V3.6C11.4717 3.592 11.9637 3.588 12.4597 3.588C12.9557 3.58 13.4557 3.58 13.9597 3.588C14.7117 3.588 15.3317 3.676 15.8197 3.852C16.3077 4.02 16.6717 4.272 16.9117 4.608C17.1597 4.944 17.2797 5.368 17.2717 5.88C17.2797 6.2 17.2157 6.52 17.0797 6.84C16.9437 7.152 16.7157 7.432 16.3957 7.68C16.0757 7.928 15.6357 8.116 15.0757 8.244C15.2357 8.34 15.3797 8.472 15.5077 8.64C15.6357 8.808 15.7677 8.996 15.9037 9.204L16.6357 10.332C16.7877 10.572 16.9277 10.776 17.0557 10.944C17.1837 11.112 17.3277 11.244 17.4877 11.34C17.6477 11.428 17.8397 11.472 18.0637 11.472V12H16.3957C16.1877 11.824 16.0077 11.636 15.8557 11.436C15.7117 11.228 15.5557 10.996 15.3877 10.74L14.5597 9.396C14.4557 9.236 14.3437 9.064 14.2237 8.88C14.1117 8.696 13.9877 8.54 13.8517 8.412C13.7237 8.412 13.5957 8.412 13.4677 8.412C13.3477 8.412 13.2237 8.412 13.0957 8.412V10.392C13.0957 10.608 13.0917 10.804 13.0837 10.98C13.0837 11.148 13.0757 11.284 13.0597 11.388C13.1557 11.38 13.2557 11.376 13.3597 11.376C13.4717 11.368 13.5797 11.36 13.6837 11.352C13.7957 11.344 13.8917 11.34 13.9717 11.34V12H10.9837ZM13.7917 7.824C14.2317 7.816 14.6077 7.748 14.9197 7.62C15.2317 7.484 15.4717 7.28 15.6397 7.008C15.8077 6.728 15.8917 6.368 15.8917 5.928C15.8917 5.6 15.8437 5.324 15.7477 5.1C15.6517 4.876 15.5157 4.696 15.3397 4.56C15.1637 4.416 14.9517 4.316 14.7037 4.26C14.4637 4.196 14.2037 4.164 13.9237 4.164C13.6677 4.164 13.4797 4.212 13.3597 4.308C13.2477 4.404 13.1757 4.544 13.1437 4.728C13.1117 4.912 13.0957 5.148 13.0957 5.436V7.788C13.2157 7.796 13.3277 7.808 13.4317 7.824C13.5437 7.832 13.6637 7.832 13.7917 7.824ZM22.8458 12.192C22.0858 12.192 21.4338 12.064 20.8898 11.808C20.3538 11.552 19.9178 11.212 19.5818 10.788C19.2458 10.356 18.9978 9.88 18.8378 9.36C18.6778 8.84 18.5978 8.32 18.5978 7.8C18.5978 7.296 18.6818 6.788 18.8498 6.276C19.0258 5.756 19.2858 5.28 19.6298 4.848C19.9818 4.416 20.4178 4.068 20.9378 3.804C21.4658 3.54 22.0818 3.408 22.7858 3.408C23.5218 3.408 24.1538 3.54 24.6818 3.804C25.2178 4.068 25.6578 4.42 26.0018 4.86C26.3458 5.292 26.6018 5.764 26.7698 6.276C26.9458 6.788 27.0338 7.296 27.0338 7.8C27.0338 8.296 26.9458 8.804 26.7698 9.324C26.6018 9.836 26.3418 10.312 25.9898 10.752C25.6458 11.184 25.2138 11.532 24.6938 11.796C24.1738 12.06 23.5578 12.192 22.8458 12.192ZM22.9058 11.568C23.3698 11.568 23.7698 11.464 24.1058 11.256C24.4498 11.048 24.7298 10.772 24.9458 10.428C25.1698 10.076 25.3338 9.692 25.4378 9.276C25.5418 8.852 25.5938 8.432 25.5938 8.016C25.5938 7.504 25.5338 7.012 25.4138 6.54C25.2938 6.06 25.1098 5.632 24.8618 5.256C24.6218 4.872 24.3218 4.572 23.9618 4.356C23.6018 4.132 23.1858 4.02 22.7138 4.02C22.2498 4.02 21.8458 4.128 21.5018 4.344C21.1578 4.56 20.8778 4.844 20.6618 5.196C20.4458 5.54 20.2818 5.924 20.1698 6.348C20.0658 6.764 20.0138 7.184 20.0138 7.608C20.0138 8.024 20.0698 8.464 20.1818 8.928C20.2938 9.392 20.4658 9.824 20.6978 10.224C20.9298 10.624 21.2258 10.948 21.5858 11.196C21.9538 11.444 22.3938 11.568 22.9058 11.568ZM28.7087 12.192C28.4607 12.192 28.2287 12.148 28.0127 12.06C27.7967 11.98 27.6207 11.868 27.4847 11.724C27.3567 11.572 27.2927 11.396 27.2927 11.196C27.2927 11.004 27.3447 10.836 27.4487 10.692C27.5527 10.54 27.7087 10.46 27.9167 10.452C28.1487 10.436 28.3127 10.496 28.4087 10.632C28.5047 10.768 28.5527 10.912 28.5527 11.064C28.5527 11.104 28.5447 11.156 28.5287 11.22C28.5207 11.276 28.5047 11.332 28.4807 11.388C28.5287 11.468 28.6007 11.52 28.6967 11.544C28.7927 11.568 28.8687 11.58 28.9247 11.58C29.1407 11.572 29.3007 11.476 29.4047 11.292C29.5167 11.1 29.5727 10.784 29.5727 10.344V5.292C29.5727 5.092 29.5727 4.9 29.5727 4.716C29.5727 4.532 29.5767 4.364 29.5847 4.212C29.4087 4.22 29.2207 4.228 29.0207 4.236C28.8207 4.244 28.6367 4.252 28.4687 4.26V3.6H31.7447V4.128C31.5127 4.128 31.3287 4.172 31.1927 4.26C31.0647 4.34 30.9727 4.464 30.9167 4.632C30.8687 4.8 30.8447 5.012 30.8447 5.268V9.036C30.8447 10.172 30.6687 10.984 30.3167 11.472C29.9727 11.952 29.4367 12.192 28.7087 12.192ZM36.8857 8.964C36.8857 8.62 36.8337 8.372 36.7297 8.22C36.6337 8.068 36.4857 7.976 36.2857 7.944C36.0857 7.904 35.8377 7.892 35.5417 7.908L34.8457 7.932V10.428C34.8457 10.644 34.8417 10.836 34.8337 11.004C34.8337 11.164 34.8257 11.296 34.8097 11.4L36.8737 11.376C37.1857 11.368 37.4657 11.312 37.7137 11.208C37.9617 11.096 38.1577 10.908 38.3017 10.644C38.4457 10.38 38.5177 10.02 38.5177 9.564H39.0457L38.9737 12H32.7337V11.472C32.9977 11.456 33.1857 11.4 33.2977 11.304C33.4177 11.208 33.4937 11.064 33.5257 10.872C33.5577 10.68 33.5737 10.436 33.5737 10.14V5.148C33.5737 4.972 33.5777 4.804 33.5857 4.644C33.5937 4.476 33.6017 4.332 33.6097 4.212C33.4737 4.22 33.3257 4.228 33.1657 4.236C33.0057 4.244 32.8617 4.252 32.7337 4.26V3.6H38.5897L38.6497 5.772H38.1217C38.1217 5.316 38.0457 4.968 37.8937 4.728C37.7497 4.488 37.5577 4.328 37.3177 4.248C37.0857 4.168 36.8337 4.132 36.5617 4.14L35.7217 4.164C35.4737 4.164 35.2857 4.208 35.1577 4.296C35.0297 4.376 34.9457 4.512 34.9057 4.704C34.8657 4.888 34.8457 5.14 34.8457 5.46V7.344H36.8257L36.7537 6.312H37.4137V8.964H36.8857ZM46.7022 6.276C46.6142 5.556 46.3662 5.004 45.9582 4.62C45.5502 4.228 45.0182 4.028 44.3622 4.02C43.9462 4.02 43.5622 4.112 43.2102 4.296C42.8582 4.48 42.5542 4.74 42.2982 5.076C42.0422 5.404 41.8422 5.796 41.6982 6.252C41.5622 6.7 41.4942 7.192 41.4942 7.728C41.4942 8.456 41.6222 9.104 41.8782 9.672C42.1342 10.232 42.4862 10.668 42.9342 10.98C43.3902 11.292 43.9062 11.448 44.4822 11.448C44.9942 11.448 45.4982 11.328 45.9942 11.088C46.4982 10.84 46.9142 10.492 47.2422 10.044L47.6382 10.38C47.2782 10.876 46.8942 11.256 46.4862 11.52C46.0782 11.784 45.6702 11.96 45.2622 12.048C44.8622 12.144 44.4982 12.192 44.1702 12.192C43.5702 12.192 43.0182 12.084 42.5142 11.868C42.0102 11.652 41.5742 11.352 41.2062 10.968C40.8462 10.576 40.5662 10.124 40.3662 9.612C40.1742 9.092 40.0782 8.532 40.0782 7.932C40.0782 7.372 40.1662 6.824 40.3422 6.288C40.5182 5.752 40.7782 5.268 41.1222 4.836C41.4662 4.396 41.8982 4.048 42.4182 3.792C42.9462 3.536 43.5582 3.408 44.2542 3.408C44.6622 3.408 45.0582 3.464 45.4422 3.576C45.8342 3.688 46.2102 3.86 46.5702 4.092L46.5102 3.492H47.2542V6.276H46.7022ZM54.818 6.192C54.81 5.736 54.758 5.356 54.662 5.052C54.566 4.748 54.406 4.52 54.182 4.368C53.966 4.216 53.666 4.144 53.282 4.152H52.418L52.406 10.392C52.406 10.608 52.402 10.804 52.394 10.98C52.394 11.148 52.386 11.284 52.37 11.388C52.522 11.372 52.686 11.364 52.862 11.364C53.046 11.356 53.21 11.348 53.354 11.34V12H50.306V11.472C50.57 11.456 50.758 11.4 50.87 11.304C50.982 11.208 51.054 11.064 51.086 10.872C51.118 10.672 51.134 10.428 51.134 10.14V4.164L50.126 4.176C49.638 4.176 49.282 4.34 49.058 4.668C48.834 4.996 48.722 5.504 48.722 6.192H48.158L48.23 3.6H55.31L55.382 6.192H54.818ZM61.0289 6.192C60.9889 5.784 60.8849 5.416 60.7169 5.088C60.5489 4.76 60.3169 4.5 60.0209 4.308C59.7249 4.108 59.3569 4.012 58.9169 4.02C58.4689 4.02 58.1129 4.144 57.8489 4.392C57.5849 4.64 57.4529 4.94 57.4529 5.292C57.4529 5.604 57.5409 5.868 57.7169 6.084C57.8929 6.292 58.1289 6.48 58.4249 6.648C58.7289 6.816 59.0689 6.984 59.4449 7.152C59.7489 7.28 60.0569 7.424 60.3689 7.584C60.6809 7.744 60.9649 7.928 61.2209 8.136C61.4769 8.336 61.6809 8.58 61.8329 8.868C61.9849 9.148 62.0609 9.48 62.0609 9.864C62.0609 10.312 61.9449 10.712 61.7129 11.064C61.4809 11.416 61.1489 11.692 60.7169 11.892C60.2929 12.092 59.7769 12.192 59.1689 12.192C58.8249 12.192 58.4609 12.14 58.0769 12.036C57.7009 11.932 57.3569 11.784 57.0449 11.592L57.1049 12.096H56.3729L56.3249 9.456H56.9009C56.9649 10.152 57.2129 10.68 57.6449 11.04C58.0849 11.392 58.6089 11.568 59.2169 11.568C59.5209 11.568 59.7969 11.512 60.0449 11.4C60.2929 11.288 60.4889 11.128 60.6329 10.92C60.7769 10.712 60.8489 10.468 60.8489 10.188C60.8489 9.86 60.7489 9.584 60.5489 9.36C60.3569 9.136 60.1089 8.944 59.8049 8.784C59.5089 8.624 59.1969 8.472 58.8689 8.328C58.5409 8.184 58.2209 8.032 57.9089 7.872C57.6049 7.712 57.3289 7.528 57.0809 7.32C56.8329 7.112 56.6369 6.868 56.4929 6.588C56.3489 6.3 56.2769 5.964 56.2769 5.58C56.2769 5.356 56.3169 5.12 56.3969 4.872C56.4769 4.624 56.6129 4.388 56.8049 4.164C56.9969 3.94 57.2569 3.76 57.5849 3.624C57.9209 3.48 58.3409 3.408 58.8449 3.408C59.1489 3.408 59.4889 3.452 59.8649 3.54C60.2489 3.628 60.5969 3.784 60.9089 4.008L60.8609 3.504H61.5809V6.192H61.0289Z" fill="white"></path><path d="M29 16H37L33 18.5L29 21V16Z" fill="#C3935B"></path></svg>