<svg xmlns="http://www.w3.org/2000/svg" width="112" height="40" viewBox="0 0 112 40" fill="none"><path fill-rule="evenodd" clip-rule="evenodd" d="M108.367 20.6384C105.031 21.2994 101.818 23.1638 99.1197 25.473C99.0538 23.4197 98.8727 20.1947 98.8727 20.1947C98.8644 20.0431 98.8004 19.8997 98.6927 19.7912C98.585 19.6826 98.441 19.6164 98.2874 19.6049C98.1338 19.5933 97.9812 19.6372 97.858 19.7283C97.7349 19.8195 97.6495 19.9517 97.618 20.1003C97.618 20.1003 97.2968 21.599 96.7132 22.797C96.5382 23.1567 96.3416 23.4885 96.1157 23.7281C95.9878 23.8645 95.8643 23.9824 95.7093 23.9824C95.2851 23.9824 95.1556 23.6113 95.1085 23.2112C95.0371 22.5885 95.201 21.8364 95.4729 21.3152C95.5111 21.2423 95.5344 21.1626 95.5414 21.0808C95.5484 20.9989 95.539 20.9165 95.5136 20.8383C95.4883 20.7601 95.4475 20.6876 95.3937 20.6249C95.3398 20.5622 95.274 20.5106 95.1999 20.4731C95.0752 20.411 94.933 20.3917 94.796 20.4184C94.6589 20.4451 94.5348 20.5162 94.4435 20.6204C94.4269 20.6322 94.411 20.645 94.3959 20.6586C93.6079 21.6088 92.3925 22.9345 90.9628 23.7521C90.0874 24.252 89.13 24.5637 88.1421 24.4174C87.7412 24.3585 87.4743 24.0354 87.2246 23.6719C86.8769 23.1632 86.5956 22.5459 86.2955 22.0345C85.7146 21.0418 84.9998 20.4589 84.0518 20.735C83.7395 20.8251 83.343 21.1657 82.9997 21.6591C82.889 21.8228 82.7738 21.9996 82.6675 22.1819C82.4211 21.5816 82.0252 20.9921 81.4238 20.6161C81.3158 20.5489 81.1897 20.5156 81.0621 20.5205C80.9345 20.5254 80.8114 20.5682 80.709 20.6434C80.6762 20.656 80.6445 20.6713 80.6143 20.6892C77.6652 22.9269 75.0987 24.3541 73.1269 24.9943C71.9546 25.3764 71.0227 25.4855 70.3837 25.2596C69.9142 25.0931 69.5986 24.8442 69.4031 24.5446C69.4632 24.5139 69.5178 24.4737 69.5648 24.4256C70.1323 23.8487 70.5449 23.6151 70.9137 23.3946C71.3782 23.1174 71.7863 22.8565 72.2847 22.2059C72.572 21.831 72.8068 21.1062 72.7171 20.4763C72.644 19.965 72.3799 19.518 71.8694 19.2729C71.4502 19.0726 70.9474 19.0895 70.4297 19.3373C70.0227 19.5311 69.5936 19.8831 69.2071 20.3312C69.1596 20.3561 69.1155 20.3869 69.0758 20.4229C68.3798 21.1504 67.0974 22.5836 65.501 23.5747C64.0375 24.484 62.2939 25.032 60.5175 24.0981C60.172 23.9164 59.9167 23.5726 59.7091 23.1261C59.6355 22.9661 59.5712 22.8021 59.5164 22.6349C59.7065 22.3538 59.8702 22.0562 60.0053 21.7458C62.0081 16.5456 63.2767 12.5063 63.955 9.51383C64.5901 6.70907 64.702 4.78465 64.4456 3.65652C64.2064 2.60317 63.646 2.10869 62.9628 2.00827C62.5751 1.95042 62.1167 2.10706 61.6837 2.57752C61.0663 3.24937 60.3785 4.70988 59.7705 6.6021C58.4139 10.8313 57.3729 17.2601 57.925 21.2928C57.9754 21.6709 58.0474 22.0459 58.1404 22.416C57.8192 22.8467 57.4111 23.3073 56.9643 23.6561C56.4853 24.0299 55.9676 24.3137 55.4632 24.0588C55.3352 23.9939 55.2727 23.8607 55.2317 23.7117C55.163 23.4612 55.1691 23.161 55.225 22.8559C55.3036 22.4293 55.477 22.025 55.7328 21.6721C55.8098 21.5843 55.8807 21.5008 55.9543 21.4167C56.1974 21.1815 56.492 21.0254 56.8403 21.0854C56.9224 21.0998 57.0065 21.098 57.0879 21.0803C57.1693 21.0626 57.2464 21.0292 57.3147 20.9821C57.3831 20.9351 57.4413 20.8752 57.4862 20.8059C57.531 20.7366 57.5616 20.6593 57.5762 20.5784C57.5907 20.4975 57.5889 20.4145 57.5709 20.3343C57.553 20.2541 57.5191 20.1781 57.4714 20.1107C57.4236 20.0434 57.3628 19.986 57.2925 19.9417C57.2223 19.8975 57.1438 19.8674 57.0617 19.8531C56.4427 19.7439 55.8807 19.9076 55.4006 20.2417C55.3032 20.278 55.2167 20.3381 55.1492 20.4163C55.1165 20.4556 55.0789 20.4987 55.0451 20.5391C54.9318 20.653 54.827 20.7748 54.7317 20.9037C53.9598 21.7829 52.9144 22.8237 51.7133 23.5098C50.8379 24.0092 49.8805 24.3214 48.8927 24.1751C48.4918 24.1161 48.2249 23.793 47.9752 23.429C47.6274 22.9203 47.3461 22.3036 47.046 21.7917C46.4646 20.7994 45.7503 20.2166 44.8023 20.4922C44.49 20.5828 44.0936 20.9233 43.7503 21.4162C43.6368 21.5799 43.5244 21.7567 43.418 21.9396C43.1716 21.3392 42.7752 20.7498 42.1744 20.3737C42.0516 20.2954 41.9049 20.2619 41.7597 20.2789C41.6145 20.296 41.4799 20.3625 41.3792 20.4671C41.3665 20.478 41.351 20.4818 41.3388 20.4933C40.4612 21.3556 38.4927 23.8127 35.2612 23.0208C34.7434 22.8941 34.1465 22.4804 33.6465 21.9696C33.1465 21.4588 32.7473 20.8573 32.6603 20.2859C32.6388 20.1426 32.5675 20.0111 32.4586 19.9138C32.3497 19.8166 32.2099 19.7596 32.0631 19.7527C31.9163 19.7457 31.7716 19.7892 31.6537 19.8757C31.5358 19.9622 31.452 20.0863 31.4167 20.2269C31.4167 20.2269 30.9676 22.0138 30.1775 23.196C29.998 23.4639 29.8037 23.7008 29.5855 23.858C29.3851 24.0026 29.1603 24.0539 28.9139 23.9186C28.888 23.8839 28.8647 23.8474 28.8441 23.8094C28.7803 23.6734 28.7381 23.5285 28.7189 23.3799C28.5949 22.5367 28.9714 21.3016 30.5147 21.08C30.5972 21.0682 30.6765 21.0404 30.7481 20.9984C30.8197 20.9563 30.8823 20.9008 30.9321 20.8349C30.982 20.7691 31.0182 20.6942 31.0386 20.6145C31.0591 20.5349 31.0635 20.4521 31.0515 20.3707C31.0395 20.2894 31.0114 20.2112 30.9687 20.1406C30.9261 20.07 30.8697 20.0084 30.8029 19.9593C30.7361 19.9102 30.6601 19.8745 30.5793 19.8543C30.4985 19.8341 30.4144 19.8298 30.3319 19.8416C30.0075 19.8872 29.6898 19.971 29.3856 20.091C29.3419 20.0911 29.2983 20.0955 29.2555 20.1041C27.0655 20.7798 24.1419 21.0128 20.1806 20.9457C20.69 11.5829 20.8821 2.46345 20.6822 0.561411C20.6648 0.396251 20.5816 0.24467 20.4508 0.140014C20.32 0.0353576 20.1524 -0.0138014 19.9848 0.00335146C19.8173 0.0205043 19.6635 0.102564 19.5573 0.231478C19.4511 0.360392 19.4012 0.525601 19.4186 0.69076C19.618 2.57752 19.4231 11.6249 18.9142 20.9146C17.0144 20.8546 14.8997 20.7361 12.5281 20.5669C10.5126 20.4234 8.81044 20.4529 7.36855 20.6019C7.6659 14.7822 8.35695 6.96558 9.9417 1.78723C9.96577 1.70839 9.97384 1.62565 9.96547 1.54373C9.9571 1.46182 9.93244 1.38233 9.8929 1.3098C9.85336 1.23728 9.79971 1.17314 9.73502 1.12105C9.67034 1.06896 9.59587 1.02994 9.51589 1.00622C9.4359 0.982497 9.35195 0.974534 9.26884 0.982787C9.18573 0.99104 9.10509 1.01535 9.03151 1.05432C8.95793 1.09329 8.89286 1.14617 8.84001 1.20993C8.78717 1.27369 8.74758 1.34708 8.72351 1.42593C7.09114 6.75873 6.38736 14.8521 6.09001 20.7765C2.7184 21.3534 1.04228 22.6502 0.145808 23.7172C0.0384561 23.845 -0.0129861 24.0096 0.00279806 24.1748C0.0185822 24.34 0.1003 24.4923 0.229974 24.5981C0.359648 24.7039 0.526656 24.7546 0.694258 24.739C0.861861 24.7235 1.01633 24.6429 1.12368 24.5151C1.89114 23.6015 3.30257 22.5694 6.03242 22.0536C5.91725 24.7394 5.88624 26.8396 5.88347 27.8018C5.88322 27.8839 5.89938 27.9653 5.93103 28.0413C5.96269 28.1173 6.00922 28.1864 6.06796 28.2446C6.12671 28.3029 6.19652 28.3492 6.27341 28.3808C6.3503 28.4125 6.43277 28.4289 6.5161 28.4292C6.59943 28.4294 6.682 28.4135 6.75908 28.3823C6.83617 28.3511 6.90627 28.3052 6.96537 28.2473C7.02448 28.1894 7.07143 28.1206 7.10356 28.0448C7.13568 27.969 7.15235 27.8878 7.1526 27.8056C7.15592 26.8232 7.18693 24.645 7.30875 21.8686C8.7141 21.7098 10.3957 21.6694 12.4362 21.8141C14.81 21.9832 16.9313 22.0995 18.8444 22.1579C18.5532 27.1965 18.1717 32.2155 17.711 36.114C17.6915 36.2788 17.7393 36.4445 17.8437 36.5746C17.9482 36.7047 18.1008 36.7885 18.268 36.8077C18.4352 36.8269 18.6033 36.7798 18.7353 36.6768C18.8673 36.5739 18.9523 36.4234 18.9718 36.2586C19.4358 32.329 19.8195 27.268 20.1113 22.1885C23.1939 22.2403 25.674 22.1126 27.6802 21.7589C27.4517 22.3309 27.3771 22.9513 27.4637 23.56C27.5678 24.2641 27.9144 24.7924 28.266 24.9927C29.1868 25.5193 30.018 25.2486 30.7151 24.5375C31.3104 23.9306 31.7893 22.9449 32.1216 22.1028C32.3046 22.3624 32.5083 22.6073 32.7307 22.8352C33.4112 23.5316 34.2484 24.0605 34.9533 24.2329C38.3786 25.0724 40.6566 22.9586 41.846 21.7655C42.022 21.9837 42.1607 22.2287 42.2569 22.4908C42.4152 22.917 42.5085 23.3639 42.5338 23.8171C42.5381 23.9595 42.5916 24.0962 42.6854 24.2045C42.7792 24.3129 42.9078 24.3865 43.0498 24.4132C43.1917 24.4398 43.3387 24.4179 43.4664 24.3511C43.5941 24.2843 43.6948 24.1766 43.7519 24.0457C43.7519 24.0457 44.2464 22.8876 44.7808 22.1251C44.867 21.9973 44.9645 21.8771 45.072 21.766C45.1025 21.7376 45.1345 21.7109 45.1678 21.6858C45.3195 21.6503 45.4308 21.7404 45.5377 21.8523C45.7918 22.1197 46.0023 22.5247 46.2265 22.9438C46.5588 23.5666 46.9115 24.2209 47.3583 24.6827C47.7321 25.0691 48.1701 25.3321 48.6922 25.4091C49.9658 25.5974 51.2095 25.2328 52.3374 24.5904C52.8973 24.2649 53.4257 23.8895 53.9161 23.4689C53.9659 24.2329 54.2959 24.8791 54.8734 25.1722C55.8148 25.6509 56.8447 25.3403 57.7439 24.6368C58.0644 24.3816 58.3609 24.0985 58.6299 23.7909C58.9621 24.4458 59.3918 24.9305 59.9101 25.2023C61.7069 26.147 63.4816 25.9401 65.0675 25.2246C66.1107 24.7536 67.0609 24.0545 67.877 23.3499C67.7757 24.6341 68.3062 25.8561 69.9446 26.4368C70.7752 26.7315 71.9934 26.6775 73.515 26.1836C75.5084 25.5363 78.0888 24.1303 81.0396 21.9319C81.2486 22.1676 81.4101 22.4405 81.5152 22.7359C81.6722 23.1621 81.7644 23.6088 81.7887 24.0616C81.7931 24.204 81.8466 24.3407 81.9404 24.449C82.0342 24.5574 82.1628 24.631 82.3047 24.6577C82.4467 24.6843 82.5937 24.6624 82.7214 24.5956C82.849 24.5288 82.9498 24.4211 83.0069 24.2903C83.0069 24.2903 83.502 23.1327 84.0357 22.3697C84.1221 22.2421 84.2196 22.1221 84.327 22.0111C84.3575 21.9825 84.3895 21.9556 84.4228 21.9303C84.5751 21.8948 84.6858 21.9849 84.7927 22.0968C85.0468 22.3647 85.2572 22.7692 85.4815 23.1883C85.8137 23.8111 86.1665 24.466 86.6133 24.9272C86.9871 25.3136 87.4251 25.5767 87.9472 25.6536C89.2208 25.8419 90.4644 25.4773 91.5924 24.8349C92.4124 24.3667 93.1677 23.7505 93.8278 23.1196C93.8372 23.3782 93.8785 23.6348 93.9507 23.8836C94.1949 24.6843 94.7519 25.2323 95.7032 25.2334C96.3649 25.2334 97 24.7624 97.489 23.9966C97.5864 23.8433 97.6794 23.679 97.7658 23.5054C97.8212 24.7094 97.8694 25.9412 97.8688 26.6005C95.1284 29.2372 93.062 32.2559 92.1655 34.6928C91.738 35.8548 91.5735 36.8967 91.686 37.7213C91.8205 38.7037 92.3222 39.4225 93.212 39.7882C94.4086 40.2794 95.6417 39.9459 96.6794 38.4751C97.9247 36.7089 98.917 33.0658 99.1269 27.113C101.817 24.6215 105.143 22.5509 108.613 21.8632C108.775 21.8267 108.915 21.7296 109.005 21.5925C109.095 21.4555 109.127 21.2893 109.094 21.1293C109.061 20.9694 108.966 20.8284 108.83 20.7363C108.693 20.6442 108.525 20.6083 108.362 20.6363L108.367 20.6384ZM59.1066 20.5255C58.7456 16.627 59.7307 10.8493 60.9727 6.98032C61.4378 5.53128 61.9328 4.35458 62.4124 3.67071C62.4983 3.54303 62.5988 3.42547 62.7119 3.32032C62.7411 3.29677 62.7718 3.27507 62.8038 3.25538C62.929 3.29249 63.0093 3.40983 63.0807 3.5692C63.1804 3.79406 63.2418 4.08714 63.2734 4.44954C63.4932 6.92138 62.3094 12.091 59.1066 20.5255ZM69.835 21.5766C70.1207 21.1455 70.4602 20.7803 70.8018 20.5599C70.8983 20.4948 71.0039 20.4439 71.1152 20.4087C71.1755 20.3818 71.2439 20.3783 71.3068 20.3988C71.4546 20.4693 71.4624 20.6374 71.4607 20.7896C71.4568 21.0429 71.3755 21.3059 71.2636 21.4511C70.8959 21.9319 70.5903 22.1197 70.2481 22.3244C69.8766 22.534 69.5246 22.7755 69.196 23.0459C69.3168 22.522 69.5334 22.0241 69.835 21.5766ZM95.6412 37.7628C95.0465 38.606 94.3909 38.9171 93.7032 38.6361C93.2463 38.4489 93.0154 38.0624 92.9468 37.5576C92.856 36.8928 93.0171 36.0589 93.3615 35.1229C94.1007 33.1128 95.6827 30.6808 97.7968 28.4371C97.5211 33.229 96.7138 36.2401 95.6412 37.7628Z" fill="black"></path><path fill-rule="evenodd" clip-rule="evenodd" d="M111.971 20.525C111.906 20.3067 111.741 20.078 111.358 20.0736C111.281 20.0736 110.96 20.156 110.886 20.1757C110.729 20.1814 110.581 20.2454 110.47 20.3547C110.36 20.4639 110.295 20.6104 110.29 20.7646C110.285 20.9188 110.339 21.0693 110.442 21.1857C110.544 21.3022 110.688 21.376 110.844 21.3922C110.907 21.3988 111.644 21.3518 111.809 21.1619C112.064 20.865 112 20.6232 111.971 20.525Z" fill="black"></path></svg>