<svg xmlns="http://www.w3.org/2000/svg" width="16" height="12" viewBox="0 0 16 12" fill="none"><path d="M15.5 0.0625H0.5C0.41712 0.0625 0.337634 0.0954241 0.279029 0.154029C0.220424 0.212634 0.1875 0.29212 0.1875 0.375V11C0.1875 11.2486 0.286272 11.4871 0.462087 11.6629C0.637903 11.8387 0.87636 11.9375 1.125 11.9375H14.875C15.1236 11.9375 15.3621 11.8387 15.5379 11.6629C15.7137 11.4871 15.8125 11.2486 15.8125 11V0.375C15.8125 0.29212 15.7796 0.212634 15.721 0.154029C15.6624 0.0954241 15.5829 0.0625 15.5 0.0625ZM8 6.82813L1.30469 0.6875H14.6953L8 6.82813ZM6.17188 6L0.8125 10.9141V1.08594L6.17188 6ZM6.63281 6.42187L7.78906 7.47656C7.8458 7.53099 7.92138 7.56139 8 7.56139C8.07862 7.56139 8.1542 7.53099 8.21094 7.47656L9.36719 6.42187L14.6953 11.3125H1.30469L6.63281 6.42187ZM9.82812 6L15.1875 1.08594V10.9141L9.82812 6Z" fill="#777777"></path></svg>