<svg xmlns="http://www.w3.org/2000/svg" width="14" height="18" viewBox="0 0 14 18" fill="none"><path d="M7.00781 4.15625C6.42065 4.15625 5.84667 4.33036 5.35846 4.65657C4.87026 4.98278 4.48974 5.44644 4.26505 5.98891C4.04035 6.53138 3.98156 7.12829 4.09611 7.70417C4.21066 8.28006 4.4934 8.80904 4.90859 9.22422C5.32378 9.63941 5.85276 9.92216 6.42864 10.0367C7.00452 10.1513 7.60144 10.0925 8.1439 9.86777C8.68637 9.64307 9.15003 9.26256 9.47624 8.77435C9.80245 8.28614 9.97656 7.71216 9.97656 7.125C9.97656 6.33764 9.66378 5.58253 9.10704 5.02578C8.55029 4.46903 7.79517 4.15625 7.00781 4.15625ZM7.00781 9.15625C6.60607 9.15625 6.21335 9.03712 5.87931 8.81392C5.54527 8.59073 5.28492 8.27349 5.13118 7.90233C4.97744 7.53116 4.93722 7.12275 5.01559 6.72872C5.09397 6.3347 5.28743 5.97277 5.5715 5.68869C5.85558 5.40461 6.21751 5.21116 6.61154 5.13278C7.00556 5.0544 7.41398 5.09463 7.78514 5.24837C8.1563 5.40211 8.47354 5.66246 8.69674 5.9965C8.91993 6.33054 9.03906 6.72326 9.03906 7.125C9.03701 7.66309 8.82234 8.17855 8.44185 8.55904C8.06136 8.93953 7.5459 9.15419 7.00781 9.15625ZM7.00781 0.40625C5.22652 0.408318 3.51878 1.11685 2.25922 2.37641C0.99966 3.63597 0.29113 5.34371 0.289062 7.125C0.289062 9.53906 1.41406 12.1016 3.53125 14.5391C4.486 15.6467 5.56318 16.6427 6.74219 17.5078C6.81995 17.5628 6.9126 17.5927 7.00781 17.5938C7.10525 17.5915 7.20006 17.5617 7.28125 17.5078C8.45485 16.639 9.52906 15.6434 10.4844 14.5391C12.6094 12.1016 13.7266 9.53906 13.7266 7.125C13.7245 5.34371 13.016 3.63597 11.7564 2.37641C10.4968 1.11685 8.7891 0.408318 7.00781 0.40625ZM7.00781 16.5391C5.83594 15.6328 1.22656 11.7812 1.22656 7.125C1.22656 5.59172 1.83566 4.12123 2.91985 3.03704C4.00405 1.95284 5.47453 1.34375 7.00781 1.34375C8.5411 1.34375 10.0116 1.95284 11.0958 3.03704C12.18 4.12123 12.7891 5.59172 12.7891 7.125C12.7891 11.7812 8.17969 15.6328 7.00781 16.5391Z" fill="#777777"></path></svg>