<svg xmlns="http://www.w3.org/2000/svg" width="12" height="18" viewBox="0 0 12 18" fill="none"><path d="M9.94166 0.720825H2.05832C1.53551 0.75223 1.0462 0.988651 0.696686 1.37873C0.347174 1.76881 0.16569 2.28105 0.191656 2.80416V15.1958C0.16569 15.7189 0.347174 16.2312 0.696686 16.6213C1.0462 17.0113 1.53551 17.2478 2.05832 17.2792H9.94166C10.4645 17.2478 10.9538 17.0113 11.3033 16.6213C11.6528 16.2312 11.8343 15.7189 11.8083 15.1958V2.80416C11.8343 2.28105 11.6528 1.76881 11.3033 1.37873C10.9538 0.988651 10.4645 0.75223 9.94166 0.720825ZM10.975 15.1958C11.0004 15.4979 10.9065 15.798 10.7133 16.0316C10.5202 16.2653 10.2431 16.414 9.94166 16.4458H2.05832C1.75683 16.414 1.47981 16.2653 1.28665 16.0316C1.09349 15.798 0.999556 15.4979 1.02499 15.1958V2.80416C0.999556 2.50206 1.09349 2.20202 1.28665 1.96835C1.47981 1.73469 1.75683 1.586 2.05832 1.55416H3.33332V1.97916C3.33332 2.20017 3.42112 2.41213 3.5774 2.56841C3.73368 2.72469 3.94564 2.81249 4.16666 2.81249H7.83332C8.05434 2.81249 8.2663 2.72469 8.42258 2.56841C8.57886 2.41213 8.66666 2.20017 8.66666 1.97916V1.55416H9.94166C10.2431 1.586 10.5202 1.73469 10.7133 1.96835C10.9065 2.20202 11.0004 2.50206 10.975 2.80416V15.1958Z" fill="#777777"></path></svg>